<svg width="38" height="24" viewBox="0 0 38 24" fill="none" xmlns="http://www.w3.org/2000/svg">
<path d="M1.76818 3.84871e-05C0.791957 3.84871e-05 0 0.796088 0 1.77829V22.2218C0 23.2038 0.792071 24 1.76818 24H36.2318C37.208 24 38 23.204 38 22.2217V1.77825C38 0.796203 37.2079 0 36.2318 0L1.76818 3.84871e-05ZM12.4604 2.88898C14.6295 2.88898 16.6216 3.64792 18.1853 4.91564C16.8697 6.09955 15.8884 7.65499 15.4042 9.41804H16.1631C16.6099 7.96359 17.4217 6.66866 18.4917 5.64175C19.5617 6.66866 20.3735 7.96359 20.8204 9.41804H21.5911C21.1002 7.66428 20.1176 6.11812 18.8029 4.94193C20.3696 3.65812 22.3696 2.88894 24.548 2.88894C29.575 2.88894 33.6501 6.98773 33.6501 12.0442C33.6501 17.1007 29.575 21.1995 24.548 21.1995C22.3333 21.1995 20.3026 20.4045 18.7245 19.082C20.1362 17.8468 21.1769 16.191 21.6529 14.3073H20.9106C20.488 15.8884 19.6374 17.2945 18.4917 18.3941C17.346 17.2945 16.4966 15.8884 16.0739 14.3073H15.3674C15.8461 16.1637 16.8732 17.7964 18.2637 19.0199C16.6884 20.326 14.6657 21.1111 12.4604 21.1111C7.43336 21.1111 3.35825 17.032 3.35825 12C3.35825 6.96805 7.43336 2.88898 12.4604 2.88898ZM23.8652 9.32486C22.7715 9.32486 21.7075 10.2865 21.7075 12.092C21.7075 13.2892 22.2822 14.0792 23.4127 14.0792C23.7324 14.0793 24.2416 13.9479 24.2416 13.9479L24.4102 12.9017C24.4102 12.9017 23.9455 13.1381 23.6265 13.1381C22.9544 13.1381 22.6848 12.6184 22.6848 12.0598C22.6848 10.9265 23.263 10.3029 23.9067 10.3029C24.3894 10.3029 24.7772 10.5776 24.7772 10.5776L24.9315 9.56013C24.9315 9.56013 24.3576 9.32486 23.8652 9.32486ZM33.06 9.41326L32.1088 9.41563L31.9045 10.6744C31.9045 10.6744 31.547 10.1859 30.9878 10.1859C30.1184 10.1859 29.3941 11.2246 29.3941 12.4192C29.3941 13.1903 29.7796 13.9467 30.5698 13.9467C31.1382 13.9467 31.4533 13.5538 31.4533 13.5538L31.4117 13.8893H32.3356L33.06 9.41326ZM5.81635 9.42637L5.05874 13.9132H5.97192L6.54907 10.5299L6.63456 13.9132H7.28767L8.50606 10.5299L7.96574 13.9132H8.93592L9.68406 9.42637H8.18306L7.24849 12.1791L7.19981 9.42641L5.81635 9.42637ZM15.3567 9.71777C15.3361 9.7386 14.8046 12.8212 14.8046 13.1967C14.8046 13.7526 15.1144 14.0008 15.5503 13.9968C15.8627 13.9942 16.1046 13.9152 16.2165 13.8822C16.2282 13.879 16.2509 13.8726 16.2509 13.8726L16.3685 13.0701C16.3046 13.0701 16.2104 13.0976 16.1274 13.0976C15.8019 13.0976 15.7659 12.9234 15.7866 12.7942L16.0491 11.1569H16.5442L16.6642 10.2695H16.1975L16.2925 9.71777H15.3567ZM26.3945 10.1692C25.7572 10.1692 25.2688 10.3806 25.2688 10.3806L25.1334 11.2047C25.1334 11.2047 25.5368 11.0362 26.1464 11.0362C26.4925 11.0362 26.746 11.0761 26.746 11.3659C26.746 11.5419 26.7152 11.6071 26.7152 11.6071C26.7152 11.6071 26.4415 11.5832 26.315 11.5832C25.5112 11.5832 24.6667 11.9375 24.6667 13.0032C24.6667 13.8429 25.2211 14.035 25.5645 14.035C26.2203 14.035 26.5031 13.5969 26.518 13.5956L26.4872 13.961H27.3054L27.6711 11.3241C27.6712 10.2052 26.7236 10.1692 26.3945 10.1692ZM11.0461 10.174C10.4064 10.174 9.9156 10.3854 9.9156 10.3854L9.78024 11.2094C9.78024 11.2094 10.1849 11.041 10.7967 11.041C11.1441 11.041 11.3988 11.081 11.3988 11.3706C11.3988 11.5466 11.3679 11.6119 11.3679 11.6119C11.3679 11.6119 11.0934 11.588 10.9666 11.588C10.1597 11.588 9.31238 11.9417 9.31238 13.0068C9.31238 13.846 9.86787 14.0386 10.2125 14.0386C10.8707 14.0386 11.1545 13.6004 11.1696 13.5992L11.1387 13.9646H11.9605L12.3274 11.3289C12.3274 10.2106 11.3764 10.174 11.0461 10.174ZM13.9483 10.174C13.2614 10.174 12.5637 10.4529 12.5637 11.4053C12.5637 12.4845 13.7263 12.3754 13.7263 12.83C13.7263 13.1334 13.4019 13.1585 13.1516 13.1585C12.7184 13.1585 12.3288 13.0079 12.3274 13.0152L12.2027 13.8392C12.2252 13.8462 12.4664 13.955 13.2454 13.955C13.4545 13.955 14.6502 14.0084 14.6502 12.756C14.6502 11.5851 13.5434 11.8172 13.5434 11.3467C13.5434 11.1126 13.7231 11.0386 14.0528 11.0386C14.1838 11.0386 14.6882 11.0805 14.6882 11.0805L14.8046 10.248C14.8046 10.248 14.479 10.174 13.9483 10.174ZM18.2423 10.174C17.2878 10.1742 16.5811 11.2065 16.5811 12.3726C16.5811 13.7186 17.4665 14.0386 18.221 14.0386C18.9174 14.0386 19.2244 13.8822 19.2244 13.8822L19.3907 12.9638C19.3907 12.9638 18.8609 13.1979 18.3825 13.1979C17.3631 13.1979 17.5417 12.4347 17.5417 12.4347H19.4714C19.4714 12.4347 19.5961 11.818 19.5961 11.5665C19.5961 10.939 19.2847 10.174 18.2423 10.174ZM21.6992 10.2134C21.2691 10.2134 20.9498 10.795 20.9498 10.795L21.0353 10.2612H20.1423L19.5427 13.9467H20.5295C20.809 12.3729 20.86 11.0949 21.527 11.3289C21.6437 10.7197 21.757 10.4844 21.8844 10.2265C21.8844 10.2265 21.8246 10.2134 21.6992 10.2134ZM29.6946 10.2134C29.2646 10.2134 28.9453 10.795 28.9453 10.795L29.0308 10.2612H28.1378L27.5381 13.9467H28.5237C28.8033 12.3729 28.8556 11.0949 29.5224 11.3289C29.6394 10.7197 29.7525 10.4844 29.8799 10.2265C29.8799 10.2265 29.8199 10.2134 29.6946 10.2134ZM18.2376 11.0052C18.7797 11.0052 18.6806 11.6206 18.6806 11.6704H17.613C17.613 11.6069 17.7139 11.0052 18.2376 11.0052ZM31.1374 11.0769C31.4825 11.0767 31.6599 11.3112 31.6599 11.8627C31.6599 12.3631 31.409 13.0319 30.8892 13.0319C30.5443 13.0319 30.3821 12.7454 30.3821 12.2962C30.3821 11.5618 30.7163 11.0769 31.1374 11.0769ZM26.3957 12.3308C26.5365 12.331 26.5656 12.3448 26.5893 12.3512C26.5859 12.3506 26.5852 12.3512 26.5988 12.3535C26.6166 12.5177 26.5002 13.2875 25.9373 13.2875C25.6471 13.2875 25.5728 13.0554 25.5728 12.9184C25.5728 12.6513 25.711 12.3308 26.3957 12.3308ZM11.0473 12.3344C11.2072 12.3346 11.2246 12.3526 11.2516 12.3571C11.2694 12.5212 11.1525 13.2898 10.5877 13.2898C10.2964 13.2898 10.2208 13.0588 10.2208 12.922C10.2208 12.6551 10.3599 12.3344 11.0473 12.3344Z" fill="black"/>
</svg>
