<svg width="17" height="17" viewBox="0 0 17 17" fill="none" xmlns="http://www.w3.org/2000/svg">
<path d="M15.2895 1.00781C15.4517 1.00781 15.6293 1.03134 15.7827 1.09277L15.894 1.14551C15.9669 1.18431 16.0364 1.22997 16.102 1.28027L16.1977 1.3584L16.1997 1.36035L16.2807 1.44922C16.3574 1.54412 16.4194 1.65354 16.4663 1.76172H16.4653C16.542 1.91054 16.5668 2.06999 16.5668 2.2373C16.5668 2.39698 16.5293 2.55585 16.4663 2.70117C16.4182 2.81194 16.3484 2.91457 16.2641 3.00977L16.1752 3.10254L10.1977 8.8457L11.3022 9.89746H11.3032L16.1752 14.5918L16.1762 14.5928L16.2563 14.6826C16.4327 14.8995 16.5295 15.1672 16.519 15.4453L16.5122 15.5635C16.4884 15.7968 16.3947 16.0138 16.2358 16.1982L16.1508 16.2871C15.9231 16.506 15.607 16.6396 15.2778 16.6396C14.9509 16.6396 14.6351 16.531 14.394 16.3115L14.393 16.3105L7.51509 9.70117C7.42915 9.61857 7.35811 9.52214 7.30122 9.41797L7.24946 9.31055C7.18654 9.16535 7.14797 9.00718 7.1479 8.84766C7.1479 8.68781 7.18608 8.529 7.24849 8.37305L7.24946 8.37207L7.30122 8.26465C7.35801 8.16067 7.42935 8.06491 7.51509 7.98242L14.393 1.37207L14.4819 1.29297C14.5758 1.21682 14.6827 1.15042 14.7973 1.10449H14.7983L14.9204 1.06348C15.0424 1.02794 15.1656 1.00787 15.2895 1.00781Z" fill="#181725" stroke="#181725" stroke-width="0.1"/>
<path d="M2.03335 16.6399C1.87112 16.6399 1.69358 16.6164 1.54019 16.5549L1.42886 16.5022C1.356 16.4634 1.28646 16.4177 1.22085 16.3674L1.12515 16.2893L1.1232 16.2874L1.04214 16.1985C0.965439 16.1036 0.903489 15.9942 0.856594 15.886L0.857571 15.886C0.780888 15.7372 0.756008 15.5777 0.756008 15.4104C0.756033 15.2507 0.793597 15.0919 0.856594 14.9465C0.904634 14.8358 0.974414 14.7331 1.05874 14.6379L1.14761 14.5452L7.12515 8.802L6.02066 7.75024L6.01968 7.75024L1.14761 3.05591L1.14663 3.05493L1.06656 2.96509C0.890122 2.74817 0.793317 2.48051 0.803861 2.20239L0.810697 2.08423C0.834428 1.85087 0.928185 1.63387 1.08706 1.44946L1.17203 1.36059C1.39976 1.1417 1.71585 1.00806 2.04507 1.00806C2.37191 1.00807 2.68779 1.11671 2.92886 1.33618L2.92984 1.33716L9.80777 7.94653C9.89371 8.02914 9.96475 8.12557 10.0216 8.22974L10.0734 8.33716C10.1363 8.48236 10.1749 8.64052 10.175 8.80005C10.175 8.9599 10.1368 9.1187 10.0744 9.27466L10.0734 9.27563L10.0216 9.38306C9.96484 9.48703 9.89351 9.58279 9.80777 9.66528L2.92984 16.2756L2.84097 16.3547C2.747 16.4309 2.64018 16.4973 2.52554 16.5432L2.52456 16.5432L2.40249 16.5842C2.28045 16.6198 2.15725 16.6398 2.03335 16.6399Z" fill="#181725" stroke="#181725" stroke-width="0.1"/>
</svg>
