<?xml version="1.0" standalone="no"?>
<!DOCTYPE svg PUBLIC "-//W3C//DTD SVG 20010904//EN"
 "http://www.w3.org/TR/2001/REC-SVG-20010904/DTD/svg10.dtd">
<svg version="1.0" xmlns="http://www.w3.org/2000/svg"
 width="600.000000pt" height="80.000000pt" viewBox="0 0 600.000000 80.000000"
 preserveAspectRatio="xMidYMid meet">

<g transform="translate(0.000000,80.000000) scale(0.100000,-0.100000)"
fill="#000000" stroke="none">
<path d="M2325 710 l-50 -20 5 -272 c5 -263 6 -274 27 -304 40 -56 142 -79
235 -54 l37 11 -16 44 -15 44 -43 -6 c-40 -5 -47 -2 -74 25 -31 30 -31 30 -31
146 l0 116 110 0 110 0 0 -132 c0 -113 3 -138 21 -174 35 -73 135 -103 242
-73 41 11 41 10 23 59 -12 34 -15 35 -64 35 -40 0 -56 5 -74 23 -21 20 -23 33
-26 142 l-4 120 79 0 78 0 -3 45 -4 45 -74 0 -74 0 0 100 c0 55 -3 100 -7 100
-5 0 -30 -9 -58 -19 l-50 -19 -3 -81 -3 -81 -109 0 -110 0 0 100 c0 112 2 110
-75 80z"/>
<path d="M5750 710 l-45 -18 -3 -243 c-2 -161 1 -258 9 -286 12 -45 49 -86 92
-102 36 -14 111 -14 158 -1 l37 10 -13 43 c-12 40 -14 42 -47 39 -91 -7 -118
36 -118 188 l0 100 75 0 75 0 0 45 0 44 -72 3 -73 3 -3 98 c-3 107 -1 105 -72
77z"/>
<path d="M1152 378 l3 -313 195 0 c182 1 198 2 242 24 55 26 89 74 95 134 6
57 -29 124 -80 150 l-38 20 30 18 c97 59 90 191 -13 250 -39 23 -52 24 -239
27 l-197 4 2 -314z m337 197 c48 -24 55 -77 17 -122 -23 -27 -27 -28 -123 -28
l-98 0 -3 83 -3 82 91 0 c60 0 101 -5 119 -15z m14 -257 c52 -27 62 -83 22
-123 -23 -24 -31 -25 -135 -25 l-110 0 0 80 0 80 101 0 c57 0 110 -5 122 -12z"/>
<path d="M1913 540 c-51 -12 -118 -56 -146 -97 -108 -156 -10 -371 177 -390
104 -11 195 29 249 109 l28 43 -57 3 c-49 3 -60 0 -83 -22 -14 -13 -45 -29
-69 -36 -38 -10 -49 -9 -87 10 -40 19 -75 66 -75 99 0 7 62 11 187 13 l188 3
-3 45 c-4 60 -46 144 -87 176 -60 45 -145 63 -222 44z m127 -106 c15 -9 35
-30 44 -45 l17 -29 -126 0 c-117 0 -125 1 -116 18 11 21 51 58 71 65 30 11 83
7 110 -9z"/>
<path d="M3090 541 c-78 -25 -148 -90 -170 -156 -7 -20 -10 -67 -8 -105 3 -53
10 -77 34 -116 91 -148 313 -152 412 -7 32 46 28 53 -31 53 -44 0 -58 -4 -77
-25 -57 -61 -157 -50 -200 21 -40 64 -40 64 161 64 l181 0 -4 59 c-8 119 -95
206 -213 216 -33 2 -71 1 -85 -4z m120 -106 c16 -9 37 -29 45 -45 l16 -30
-121 0 c-112 0 -120 1 -111 18 11 21 51 58 71 65 29 10 71 7 100 -8z"/>
<path d="M3655 535 c-22 -8 -52 -28 -67 -45 l-28 -30 0 35 0 35 -65 0 -65 0 0
-235 0 -235 65 0 65 0 0 130 c0 111 3 137 20 170 25 48 69 73 121 68 l39 -4 0
63 c0 59 -2 63 -22 63 -13 -1 -41 -7 -63 -15z"/>
<path d="M4005 538 c-16 -6 -47 -23 -67 -40 l-38 -29 0 31 0 30 -62 0 -63 0 0
-229 0 -230 63 -3 62 -3 1 130 c0 152 10 190 59 223 46 31 94 25 133 -18 27
-30 27 -31 27 -183 l0 -152 64 3 65 4 3 148 3 149 29 30 c37 39 83 48 126 26
50 -26 60 -64 60 -225 l0 -140 60 0 60 0 0 177 c0 203 -11 243 -78 285 -73 45
-206 22 -260 -46 l-19 -25 -23 30 c-41 57 -132 82 -205 57z"/>
<path d="M4810 541 c-82 -27 -149 -92 -170 -166 -32 -114 11 -232 104 -290 44
-27 58 -30 130 -30 71 0 87 4 129 28 30 18 60 47 78 75 l30 47 -57 3 c-50 3
-60 0 -84 -23 -64 -61 -168 -47 -203 28 -9 19 -17 40 -17 46 0 8 56 11 180 11
l180 0 0 48 c-1 84 -50 166 -122 203 -42 22 -140 33 -178 20z m145 -121 c13
-12 25 -30 28 -41 5 -18 -2 -19 -109 -19 -126 0 -136 6 -86 52 36 34 49 38
100 34 27 -2 52 -12 67 -26z"/>
<path d="M5390 535 c-19 -9 -47 -28 -62 -42 l-28 -27 0 32 0 32 -60 0 -60 0 0
-235 0 -235 59 0 60 0 3 149 c3 133 5 153 24 178 34 46 70 59 118 42 65 -22
76 -55 76 -227 l0 -143 58 3 57 3 0 175 c0 168 -1 177 -25 219 -14 25 -39 53
-57 63 -44 26 -120 32 -163 13z"/>
</g>
</svg>
