<svg width="26" height="28" viewBox="0 0 26 28" fill="none" xmlns="http://www.w3.org/2000/svg">
<path d="M14.2099 0.580853C13.8153 0.207838 13.293 0 12.75 0C12.207 0 11.6847 0.207838 11.2901 0.580853L0.996627 10.3091C0.68145 10.6074 0.430487 10.9668 0.259115 11.3655C0.0877435 11.7641 -0.000428341 12.1936 1.56454e-06 12.6275V24.4637C0.000564904 25.3087 0.336639 26.1189 0.93435 26.7163C1.53206 27.3136 2.34249 27.6491 3.1875 27.6491H6.375C7.22038 27.6491 8.03113 27.3133 8.62891 26.7155C9.22668 26.1177 9.5625 25.307 9.5625 24.4616V19.1491C9.5625 18.8673 9.67445 18.5971 9.8737 18.3978C10.073 18.1985 10.3432 18.0866 10.625 18.0866H14.875C15.1568 18.0866 15.427 18.1985 15.6263 18.3978C15.8256 18.5971 15.9375 18.8673 15.9375 19.1491V24.4616C15.9375 25.307 16.2733 26.1177 16.8711 26.7155C17.4689 27.3133 18.2796 27.6491 19.125 27.6491H22.3125C23.1579 27.6491 23.9686 27.3133 24.5664 26.7155C25.1642 26.1177 25.5 25.307 25.5 24.4616V12.6254C25.4999 12.1916 25.4112 11.7625 25.2395 11.3642C25.0678 10.966 24.8166 10.6069 24.5013 10.3091L14.2099 0.576603V0.580853Z" color="#80A896"/>
</svg>
