<svg width="34" height="34" viewBox="0 0 34 34" fill="none" xmlns="http://www.w3.org/2000/svg">
<path d="M22.2099 3.58085C21.8153 3.20784 21.293 3 20.75 3C20.207 3 19.6847 3.20784 19.2901 3.58085L8.99663 13.3091C8.68145 13.6074 8.43049 13.9668 8.25912 14.3655C8.08774 14.7641 7.99957 15.1936 8 15.6275V27.4637C8.00056 28.3087 8.33664 29.1189 8.93435 29.7163C9.53206 30.3136 10.3425 30.6491 11.1875 30.6491H14.375C15.2204 30.6491 16.0311 30.3133 16.6289 29.7155C17.2267 29.1177 17.5625 28.307 17.5625 27.4616V22.1491C17.5625 21.8673 17.6744 21.5971 17.8737 21.3978C18.073 21.1985 18.3432 21.0866 18.625 21.0866H22.875C23.1568 21.0866 23.427 21.1985 23.6263 21.3978C23.8256 21.5971 23.9375 21.8673 23.9375 22.1491V27.4616C23.9375 28.307 24.2733 29.1177 24.8711 29.7155C25.4689 30.3133 26.2796 30.6491 27.125 30.6491H30.3125C31.1579 30.6491 31.9686 30.3133 32.5664 29.7155C33.1642 29.1177 33.5 28.307 33.5 27.4616V15.6254C33.4999 15.1916 33.4112 14.7625 33.2395 14.3642C33.0678 13.966 32.8166 13.6069 32.5013 13.3091L22.2099 3.5766V3.58085Z" fill="#00512C"/>
</svg>
