<svg width="23" height="26" viewBox="0 0 23 26" fill="none" xmlns="http://www.w3.org/2000/svg">
<g clip-path="url(#clip0_3_249)">
<path d="M16.1 15.4375C14.6266 15.4375 13.9181 16.25 11.5 16.25C9.08192 16.25 8.37857 15.4375 6.9 15.4375C3.09063 15.4375 0 18.4945 0 22.2625V23.5625C0 24.9082 1.10379 26 2.46429 26H20.5357C21.8962 26 23 24.9082 23 23.5625V22.2625C23 18.4945 19.9094 15.4375 16.1 15.4375ZM20.5357 23.5625H2.46429V22.2625C2.46429 19.8453 4.45625 17.875 6.9 17.875C7.64955 17.875 8.86629 18.6875 11.5 18.6875C14.1542 18.6875 15.3453 17.875 16.1 17.875C18.5438 17.875 20.5357 19.8453 20.5357 22.2625V23.5625ZM11.5 14.625C15.5815 14.625 18.8929 11.3496 18.8929 7.3125C18.8929 3.27539 15.5815 0 11.5 0C7.41853 0 4.10714 3.27539 4.10714 7.3125C4.10714 11.3496 7.41853 14.625 11.5 14.625ZM11.5 2.4375C14.2158 2.4375 16.4286 4.62617 16.4286 7.3125C16.4286 9.99883 14.2158 12.1875 11.5 12.1875C8.78415 12.1875 6.57143 9.99883 6.57143 7.3125C6.57143 4.62617 8.78415 2.4375 11.5 2.4375Z" fill="#80A896"/>
</g>
<defs>
<clipPath id="clip0_3_249">
<rect width="23" height="26" fill="white"/>
</clipPath>
</defs>
</svg>
